PathFileType	4	(X/Y/Z)	C:/Users/opensim2020/Desktop/walking_exp_matlab/subject01_walking05_straight_01.trc	
DataRate	CameraRate	NumFrames	NumMarkers	Units	OrigDataRate	OrigDataStartFrame	OrigNumFrames	
100.00	100.00	5	43	mm	100.00	784	239	
Frame#	Time	LFHD			RFHD			LBHD			RBHD			C7			T10			CLAV			STRN			RBAK			LSHO			LUPA			LELB			LFRM			LWRA			LWRB			LFIN			RSHO			RUPA			RELB			RFRM			RWRA			RWRB			RFIN			LASI			RASI			LPSI			RPSI			LTHI			LKNE			LTIB			LANK			LHEE			LTOE			RTHI			RKNE			RTIB			RANK			RHEE			RTOE			*39			*40			*41			*42			
		X1	Y1	Z1	X2	Y2	Z2	X3	Y3	Z3	X4	Y4	Z4	X5	Y5	Z5	X6	Y6	Z6	X7	Y7	Z7	X8	Y8	Z8	X9	Y9	Z9	X10	Y10	Z10	X11	Y11	Z11	X12	Y12	Z12	X13	Y13	Z13	X14	Y14	Z14	X15	Y15	Z15	X16	Y16	Z16	X17	Y17	Z17	X18	Y18	Z18	X19	Y19	Z19	X20	Y20	Z20	X21	Y21	Z21	X22	Y22	Z22	X23	Y23	Z23	X24	Y24	Z24	X25	Y25	Z25	X26	Y26	Z26	X27	Y27	Z27	X28	Y28	Z28	X29	Y29	Z29	X30	Y30	Z30	X31	Y31	Z31	X32	Y32	Z32	X33	Y33	Z33	X34	Y34	Z34	X35	Y35	Z35	X36	Y36	Z36	X37	Y37	Z37	X38	Y38	Z38	X39	Y39	Z39	X40	Y40	Z40	X41	Y41	Z41	X42	Y42	Z42	X43	Y43	Z43	

30	0.290	-1109.02661	-811.19775	1660.12268	-996.05182	-799.49280	1674.96912	-1097.65491	-911.10571	1584.36902	-977.65039	-901.34894	1597.54224	-1049.09277	-919.33655	1418.03772	-1027.53918	-953.16028	1125.67712	-1039.50317	-774.03149	1351.26489	-1032.43701	-731.15186	1196.13452	-963.51129	-975.96417	1228.15857	-1203.81042	-831.94916	1368.13550	-1277.76575	-873.76563	1180.45605	-1268.35486	-901.44983	1033.62378	-1287.56323	-881.42053	921.52313	-1264.76208	-822.83844	796.24579	-1287.86560	-878.79260	798.42181	-1293.32605	-842.75793	722.01196	-890.69751	-842.50458	1386.96167	-779.60248	-898.22906	1192.72864	-764.09686	-887.68048	1066.18469	-737.82104	-827.64099	957.93250	-765.67133	-719.00885	870.14929	-725.02197	-759.52032	857.62592	-727.72052	-700.16663	797.15057	-1117.13074	-773.79230	919.24603	-901.44891	-797.79156	915.55353	-1090.16370	-964.84436	934.28540	-946.29901	-979.41431	939.70630	-1178.09656	-729.47192	605.54993	-1156.68066	-705.40503	475.50851	-1177.68140	-719.88916	287.10254	-1131.47815	-718.29767	66.65763	-1082.54846	-764.60840	36.11700	-1126.18835	-569.45227	34.85624	-852.85956	-913.49774	591.65332	-871.72546	-941.73682	432.07309	-881.53229	-1070.25012	309.05911	-937.12598	-1184.38831	136.47708	-994.52649	-1235.60083	129.15906	-938.53485	-1085.72412	29.16472	-1019.63947	-821.23248	1702.20300	-3101.77319	1973.09973	1023.33618	-3140.56665	2012.55066	1021.97723			 
31	0.300	-1111.10425	-802.98547	1660.79663	-998.04926	-791.67065	1675.77502	-1099.95313	-902.77612	1584.86145	-979.95770	-893.37659	1598.12292	-1051.19373	-910.67725	1418.15112	-1029.17041	-943.77161	1126.04114	-1041.19519	-765.29425	1352.02979	-1034.16345	-721.79395	1197.07678	-965.47906	-966.70020	1228.36914	-1205.74683	-823.11353	1368.53760	-1279.48450	-863.44086	1180.46667	-1270.13440	-889.94977	1033.50793	-1289.19507	-869.08026	921.45953	-1266.35779	-809.91821	796.91577	-1289.77441	-865.78387	798.58710	-1295.36792	-829.45074	722.42950	-892.49774	-834.49799	1387.63123	-782.41132	-891.23883	1193.38416	-766.57574	-880.98987	1067.05237	-739.70789	-822.04858	958.39380	-766.55249	-714.04248	869.42773	-726.29846	-754.50220	857.32837	-728.38098	-696.24878	796.26062	-1119.20056	-764.14349	920.30084	-903.60229	-787.52252	916.40485	-1091.16821	-955.24786	934.76166	-947.14496	-969.13873	939.70593	-1178.16553	-719.67981	605.46112	-1156.95313	-696.96747	474.60349	-1178.46448	-713.96588	285.97684	-1131.17529	-716.77606	66.67369	-1082.46265	-764.29999	36.06175	-1125.42419	-567.98639	34.19350	-852.33496	-898.81445	591.44598	-869.21661	-925.41028	431.45465	-880.79541	-1058.31860	312.59250	-937.18359	-1175.67725	142.99937	-995.75580	-1225.71545	138.55542	-939.13190	-1084.45728	29.24513	-1021.79535	-813.30420	1702.95349	-3101.77881	1973.07886	1023.32043	-3140.48193	2012.58997	1021.95782			 
32	0.310	-1113.16553	-794.77026	1661.45801	-1000.15509	-783.64966	1676.48840	-1102.13672	-894.46350	1585.33228	-982.12537	-885.33014	1598.73279	-1053.19177	-902.20978	1418.62451	-1030.90576	-934.42664	1126.48059	-1042.99646	-756.60706	1353.09229	-1035.84570	-712.60406	1198.01489	-967.14014	-957.60699	1228.83887	-1207.61267	-814.26636	1369.17505	-1281.09216	-853.08240	1180.74817	-1271.99817	-878.37292	1033.69202	-1291.03333	-856.62885	921.97461	-1267.64478	-796.86951	797.40564	-1291.57837	-852.49658	799.02246	-1296.76135	-815.60529	723.00488	-894.47125	-825.84064	1388.46045	-785.02362	-884.06433	1194.21411	-768.82306	-874.32910	1068.16345	-741.45447	-816.90686	959.14093	-767.54816	-709.21893	868.72058	-727.57513	-750.18683	857.03119	-729.19257	-692.47571	795.28192	-1121.43494	-754.75500	921.32660	-905.77124	-777.61017	917.35773	-1092.28943	-945.78400	935.24091	-948.15210	-959.16650	939.79443	-1178.54187	-710.71661	605.07074	-1157.50085	-689.42804	473.54019	-1178.54785	-709.20081	285.28436	-1130.86108	-715.86749	66.66136	-1082.40588	-764.05457	36.24519	-1124.95862	-567.17975	33.16106	-851.53180	-883.36041	591.01965	-866.87610	-908.16077	430.88553	-880.19775	-1044.42932	315.61996	-937.46100	-1165.67798	149.86874	-997.19861	-1214.45142	148.23224	-939.97681	-1082.56946	29.47886	-1023.95758	-805.46808	1703.53552	-3101.76807	1973.07581	1023.29449	-3140.67188	2012.50049	1021.92163			 
33	0.320	-1115.14880	-786.63745	1662.11243	-1002.08557	-775.93744	1677.36780	-1104.24683	-886.15601	1585.76404	-984.19037	-877.33704	1599.32495	-1055.10657	-893.20410	1418.92810	-1032.58472	-925.25348	1127.07007	-1044.94226	-747.56335	1353.90283	-1037.50769	-703.53796	1198.91150	-968.59235	-948.61188	1229.41858	-1209.45300	-805.33539	1369.98779	-1282.74622	-842.75250	1181.33875	-1273.89746	-866.76880	1034.22192	-1292.76086	-843.93951	922.55444	-1269.04236	-783.51074	798.39899	-1293.20715	-838.93945	799.69617	-1298.77869	-801.50043	724.12500	-896.36798	-816.87677	1389.41394	-787.34180	-876.77362	1195.15173	-771.30286	-867.87311	1069.08350	-743.23035	-810.93909	959.45734	-768.48151	-704.51147	867.97498	-728.90546	-745.90100	856.78534	-730.03058	-688.93555	794.26355	-1123.76697	-745.55377	922.28705	-908.02509	-767.92291	918.32159	-1093.41223	-936.44000	935.70081	-949.13086	-949.45313	940.10516	-1179.38538	-702.58905	604.82947	-1158.36853	-682.60321	472.83826	-1178.54053	-705.25659	284.92105	-1130.58740	-715.46802	66.62679	-1082.28772	-763.80688	36.26245	-1125.06506	-566.75238	32.64521	-850.66553	-867.57343	590.54718	-864.83228	-890.72870	430.28784	-879.50024	-1029.18237	318.65442	-937.51428	-1154.99915	156.66980	-998.28204	-1201.74158	158.11765	-941.44073	-1080.87183	29.90358	-1026.09546	-797.50641	1704.31482	-3101.83130	1973.01758	1023.73480	-3140.59448	2012.58997	1022.01007			 
34	0.330	-1117.02002	-778.57581	1662.66711	-1003.80841	-767.93512	1678.21265	-1106.27051	-877.87067	1586.10254	-986.16034	-869.34137	1599.86475	-1056.85413	-884.68805	1419.65125	-1034.36340	-916.22864	1127.63525	-1046.75244	-739.04651	1354.78357	-1039.17773	-694.56885	1199.70715	-969.86450	-939.69312	1230.10608	-1211.09814	-796.32837	1370.89075	-1284.44995	-832.45862	1182.13147	-1275.83862	-855.21240	1034.87134	-1294.42480	-830.96039	923.27032	-1270.50110	-769.83862	799.66205	-1295.14893	-825.03210	800.71472	-1300.65552	-786.87854	725.45300	-898.11761	-808.27728	1390.20703	-789.35724	-869.36212	1196.16638	-773.55493	-860.82349	1070.22607	-745.06598	-805.52661	959.93982	-769.51746	-699.89960	867.14630	-730.23425	-742.19550	856.60052	-731.04022	-685.62518	793.26935	-1125.94470	-736.54962	923.15240	-910.13971	-758.48938	919.41919	-1094.63501	-927.30927	936.04901	-950.28174	-940.01154	940.23956	-1180.57141	-695.84772	604.55707	-1159.48291	-676.45386	472.51831	-1178.59778	-701.96222	284.69870	-1130.35364	-715.22668	66.67685	-1082.27319	-763.79840	36.30564	-1124.80872	-566.54065	32.37333	-849.82153	-851.68335	590.04926	-863.44263	-872.58887	430.11795	-879.10358	-1013.28510	321.57117	-937.22961	-1142.65149	162.76926	-998.69043	-1188.47656	167.60449	-942.59167	-1078.70801	30.55268	-1028.03198	-789.85547	1704.90869	-3101.79517	1973.20593	1023.40198	-3140.67480	2012.46765	1021.99597			 
